<?xml version="1.0" encoding="UTF-8" standalone="no"?>
<!DOCTYPE svg PUBLIC "-//W3C//DTD SVG 1.1//EN" "http://www.w3.org/Graphics/SVG/1.1/DTD/svg11.dtd">
<svg width="100%" height="100%" viewBox="0 0 48 48" version="1.1" xmlns="http://www.w3.org/2000/svg" xmlns:xlink="http://www.w3.org/1999/xlink" xml:space="preserve" xmlns:serif="http://www.serif.com/" style="fill-rule:evenodd;clip-rule:evenodd;stroke-linecap:round;stroke-linejoin:round;stroke-miterlimit:1.5;">
    <g transform="matrix(1.217391,0,0,1.241379,-5.826087,-3.931034)">
        <path d="M16.664,8L24.436,8C25.427,8 26.368,8.431 27.004,9.176L35.238,18.814C35.73,19.39 36,20.118 36,20.869L36,33.417C36,35.396 34.364,37 32.347,37L16.698,37C14.656,37 13,35.376 13,33.374L13,11.593C13,9.609 14.641,8 16.664,8ZM16.664,9.678C15.586,9.678 14.711,10.536 14.711,11.593L14.711,33.374C14.711,34.45 15.601,35.322 16.698,35.322L32.347,35.322C33.419,35.322 34.289,34.469 34.289,33.417L34.289,20.869C34.289,20.512 34.161,20.166 33.927,19.892L25.693,10.253C25.381,9.889 24.921,9.678 24.436,9.678L16.664,9.678Z"/>
        <path d="M16.664,8C14.641,8 13,9.609 13,11.593C13,17.156 13,27.791 13,33.374C13,35.376 14.656,37 16.698,37C21.001,37 28.063,37 32.347,37C34.364,37 36,35.396 36,33.417L36,20.869C36,20.118 35.73,19.39 35.238,18.814C33.455,16.726 29.006,11.519 27.004,9.176C26.368,8.431 25.427,8 24.436,8C22.524,8 19.228,8 16.664,8Z" style="fill:white;fill-opacity:0;"/>
    </g>
    <g transform="matrix(0.333332,0,0,0.312498,12.000021,24.125069)">
        <path d="M39.125,25.188L39.125,34.812L39.001,36.123L38.643,37.352L38.078,38.46L37.334,39.423L36.432,40.217L35.392,40.819L34.241,41.201L33.011,41.333L17.989,41.333L16.759,41.201L15.608,40.819L14.568,40.217L13.666,39.423L12.922,38.46L12.357,37.352L11.999,36.123L11.875,34.812L11.875,25.188L11.999,23.877L12.357,22.648L12.922,21.54L13.666,20.577L14.568,19.783L15.608,19.181L16.759,18.799L17.989,18.667L33.011,18.667L34.241,18.799L35.392,19.181L36.432,19.783L37.334,20.577L38.078,21.54L38.643,22.648L39.001,23.877L39.125,25.188ZM36,25.188C36,23.428 34.661,22 33.011,22L17.989,22C16.339,22 15,23.428 15,25.188L15,34.812C15,36.572 16.339,38 17.989,38L33.011,38C34.661,38 36,36.572 36,34.812L36,25.188Z"/>
        <path d="M36,25.188L36,34.812C36,36.572 34.661,38 33.011,38L17.989,38C16.339,38 15,36.572 15,34.812L15,25.188C15,23.428 16.339,22 17.989,22L33.011,22C34.661,22 36,23.428 36,25.188Z"/>
    </g>
    <g transform="matrix(0.371424,0.003222,-0.001639,0.370362,11.428061,22.448428)">
        <path d="M17,22L17,11.739C17,9.689 17.814,7.721 19.262,6.269C20.71,4.816 22.673,4 24.716,4C24.728,4 24.739,4 24.751,4C28.759,4 32,7.25 32,11.27C32,16.265 32,22 32,22" style="fill:none;stroke:black;stroke-width:2.8px;"/>
    </g>
    <g transform="matrix(1.145877,0,0,1.275862,-5.32054,-2.030426)">
        <path d="M26,8L26,16.597C26,17.372 26.699,18 27.562,18C30.375,18 36,18 36,18" style="fill:none;stroke:black;stroke-width:1.72px;"/>
        <path d="M26,8L26,16.597C26,17.372 26.699,18 27.562,18C30.375,18 36,18 36,18" style="fill:white;fill-opacity:0;"/>
    </g>
</svg>
