<?xml version="1.0" encoding="UTF-8" standalone="no"?>
<!DOCTYPE svg PUBLIC "-//W3C//DTD SVG 1.1//EN" "http://www.w3.org/Graphics/SVG/1.1/DTD/svg11.dtd">
<svg width="100%" height="100%" viewBox="0 0 48 48" version="1.1" xmlns="http://www.w3.org/2000/svg" xmlns:xlink="http://www.w3.org/1999/xlink" xml:space="preserve" xmlns:serif="http://www.serif.com/" style="fill-rule:evenodd;clip-rule:evenodd;stroke-linecap:round;stroke-linejoin:round;stroke-miterlimit:1.5;">
    <g transform="matrix(1.217391,0,0,1.241379,-5.826087,-3.931034)">
        <path d="M16.664,8L24.436,8C25.427,8 26.368,8.431 27.004,9.176L35.238,18.814C35.73,19.39 36,20.118 36,20.869L36,33.417C36,35.396 34.364,37 32.347,37L16.698,37C14.656,37 13,35.376 13,33.374L13,11.593C13,9.609 14.641,8 16.664,8ZM16.664,10.014C15.775,10.014 15.054,10.721 15.054,11.593L15.054,33.374C15.054,34.264 15.79,34.986 16.698,34.986L32.347,34.986C33.23,34.986 33.946,34.284 33.946,33.417L33.946,20.869C33.946,20.591 33.847,20.321 33.664,20.108L25.43,10.469C25.184,10.181 24.82,10.014 24.436,10.014L16.664,10.014Z"/>
        <path d="M16.664,8C14.641,8 13,9.609 13,11.593C13,17.156 13,27.791 13,33.374C13,35.376 14.656,37 16.698,37C21.001,37 28.063,37 32.347,37C34.364,37 36,35.396 36,33.417L36,20.869C36,20.118 35.73,19.39 35.238,18.814C33.455,16.726 29.006,11.519 27.004,9.176C26.368,8.431 25.427,8 24.436,8C22.524,8 19.228,8 16.664,8Z" style="fill:white;fill-opacity:0;"/>
    </g>
    <g transform="matrix(1.145877,0,0,1.275862,-5.32054,-2.030426)">
        <path d="M26,8L26,16.597C26,17.372 26.699,18 27.562,18C30.375,18 36,18 36,18" style="fill:none;stroke:black;stroke-width:1.89px;"/>
        <path d="M26,8L26,16.597C26,17.372 26.699,18 27.562,18C30.375,18 36,18 36,18" style="fill:white;fill-opacity:0;"/>
    </g>
</svg>
