<?xml version="1.0" encoding="UTF-8" standalone="no"?>
<!DOCTYPE svg PUBLIC "-//W3C//DTD SVG 1.1//EN" "http://www.w3.org/Graphics/SVG/1.1/DTD/svg11.dtd">
<svg width="100%" height="100%" viewBox="0 0 48 48" version="1.1" xmlns="http://www.w3.org/2000/svg" xmlns:xlink="http://www.w3.org/1999/xlink" xml:space="preserve" xmlns:serif="http://www.serif.com/" style="fill-rule:evenodd;clip-rule:evenodd;stroke-linecap:round;stroke-linejoin:round;stroke-miterlimit:1.5;">
    <g transform="matrix(1.217391,0,0,1.241379,-5.826087,-3.931034)">
        <path d="M16.664,8L24.436,8C25.427,8 26.368,8.431 27.004,9.176L35.238,18.814C35.73,19.39 36,20.118 36,20.869L36,33.417C36,35.396 34.364,37 32.347,37L16.698,37C14.656,37 13,35.376 13,33.374L13,11.593C13,9.609 14.641,8 16.664,8ZM16.664,10.014C15.775,10.014 15.054,10.721 15.054,11.593L15.054,33.374C15.054,34.264 15.79,34.986 16.698,34.986L32.347,34.986C33.23,34.986 33.946,34.284 33.946,33.417L33.946,20.869C33.946,20.591 33.847,20.321 33.664,20.108L25.43,10.469C25.184,10.181 24.82,10.014 24.436,10.014L16.664,10.014Z"/>
        <path d="M16.664,8C14.641,8 13,9.609 13,11.593C13,17.156 13,27.791 13,33.374C13,35.376 14.656,37 16.698,37C21.001,37 28.063,37 32.347,37C34.364,37 36,35.396 36,33.417L36,20.869C36,20.118 35.73,19.39 35.238,18.814C33.455,16.726 29.006,11.519 27.004,9.176C26.368,8.431 25.427,8 24.436,8C22.524,8 19.228,8 16.664,8Z" style="fill:white;fill-opacity:0;"/>
    </g>
    <g transform="matrix(0.333332,0,0,0.312498,12.000021,24.125069)">
        <path d="M39.75,25.188L39.75,34.812L39.613,36.257L39.218,37.612L38.596,38.834L37.776,39.894L36.782,40.769L35.636,41.433L34.366,41.854L33.011,42L17.989,42L16.634,41.854L15.364,41.433L14.218,40.769L13.224,39.894L12.404,38.834L11.782,37.612L11.387,36.257L11.25,34.812L11.25,25.188L11.387,23.743L11.782,22.388L12.404,21.166L13.224,20.106L14.218,19.231L15.364,18.567L16.634,18.146L17.989,18L33.011,18L34.366,18.146L35.636,18.567L36.782,19.231L37.776,20.106L38.596,21.166L39.218,22.388L39.613,23.743L39.75,25.188ZM36,25.188C36,23.428 34.661,22 33.011,22L17.989,22C16.339,22 15,23.428 15,25.188L15,34.812C15,36.572 16.339,38 17.989,38L33.011,38C34.661,38 36,36.572 36,34.812L36,25.188Z"/>
        <path d="M36,25.188L36,34.812C36,36.572 34.661,38 33.011,38L17.989,38C16.339,38 15,36.572 15,34.812L15,25.188C15,23.428 16.339,22 17.989,22L33.011,22C34.661,22 36,23.428 36,25.188Z"/>
    </g>
    <g transform="matrix(0.371424,0.003222,-0.001639,0.370362,11.428061,22.448428)">
        <path d="M17,22L17,11.739C17,9.689 17.814,7.721 19.262,6.269C20.71,4.816 22.673,4 24.716,4C24.728,4 24.739,4 24.751,4C28.759,4 32,7.25 32,11.27C32,16.265 32,22 32,22" style="fill:none;stroke:black;stroke-width:3.36px;"/>
    </g>
    <g transform="matrix(1.145877,0,0,1.275862,-5.32054,-2.030426)">
        <path d="M26,8L26,16.597C26,17.372 26.699,18 27.562,18C30.375,18 36,18 36,18" style="fill:none;stroke:black;stroke-width:1.89px;"/>
        <path d="M26,8L26,16.597C26,17.372 26.699,18 27.562,18C30.375,18 36,18 36,18" style="fill:white;fill-opacity:0;"/>
    </g>
</svg>
