<?xml version="1.0" encoding="UTF-8" standalone="no"?>
<!DOCTYPE svg PUBLIC "-//W3C//DTD SVG 1.1//EN" "http://www.w3.org/Graphics/SVG/1.1/DTD/svg11.dtd">
<svg width="100%" height="100%" viewBox="0 0 48 48" version="1.1" xmlns="http://www.w3.org/2000/svg" xmlns:xlink="http://www.w3.org/1999/xlink" xml:space="preserve" xmlns:serif="http://www.serif.com/" style="fill-rule:evenodd;clip-rule:evenodd;stroke-linecap:round;stroke-linejoin:round;stroke-miterlimit:1.5;">
    <g transform="matrix(-2.618189,0.169688,-0.136808,-2.503421,91.036447,73.781953)">
        <path d="M24.5,22C25.237,22 26.711,22 27.447,22.8C28.184,23.6 28.184,25.2 27.447,26.8C26.932,28 25.605,29.2 24.5,30C23.395,29.2 22.068,28 21.553,26.8C20.816,25.2 20.816,23.6 21.553,22.8C22.289,22 23.763,22 24.5,22ZM24.508,22.831C24.173,22.831 23.671,22.828 23.169,22.919C22.783,22.989 22.385,23.1 22.127,23.38C21.885,23.643 21.794,24.048 21.794,24.508C21.794,25.099 21.957,25.771 22.267,26.445L22.276,26.466C22.671,27.384 23.61,28.285 24.494,28.977C25.381,28.283 26.326,27.376 26.723,26.453L26.731,26.433C27.043,25.757 27.206,25.083 27.206,24.492C27.206,24.036 27.118,23.634 26.878,23.374C26.623,23.097 26.229,22.988 25.846,22.919C25.344,22.828 24.843,22.831 24.508,22.831Z"/>
    </g>
    <g transform="matrix(0.396552,-0.928036,1.330437,0.444846,13.326639,48.058847)">
        <path d="M16.351,5.135C17.984,4.436 19.946,4.406 21.466,5.057L26,7L21.659,8.86C20.02,9.563 18.05,9.593 16.524,8.939L12,7L16.351,5.135ZM17.111,6.147L15.235,6.951L17.455,7.902C18.478,8.34 19.8,8.32 20.899,7.849L22.765,7.049L20.535,6.094C19.518,5.658 18.204,5.678 17.111,6.147Z"/>
    </g>
    <g transform="matrix(-0.66353,-0.739903,0.918706,-0.969278,23.820657,52.807997)">
        <path d="M16.379,5.123C18.002,4.428 19.93,4.399 21.443,5.047L26,7L21.631,8.872C20.002,9.571 18.066,9.6 16.547,8.949L12,7L16.379,5.123ZM17.127,6.196L15.369,6.949L17.473,7.851C18.492,8.287 19.79,8.268 20.883,7.8L22.631,7.051L20.517,6.145C19.505,5.711 18.214,5.73 17.127,6.196Z"/>
    </g>
    <g transform="matrix(0.758968,0.073257,-0.086495,0.896116,-3.100102,4.20156)">
        <path d="M38,21C39.406,33.314 42.757,39.917 43,40" style="fill:none;stroke:black;stroke-width:3px;"/>
    </g>
</svg>
