<?xml version="1.0" encoding="UTF-8" standalone="no"?>
<!DOCTYPE svg PUBLIC "-//W3C//DTD SVG 1.1//EN" "http://www.w3.org/Graphics/SVG/1.1/DTD/svg11.dtd">
<svg width="100%" height="100%" viewBox="0 0 48 48" version="1.1" xmlns="http://www.w3.org/2000/svg" xmlns:xlink="http://www.w3.org/1999/xlink" xml:space="preserve" xmlns:serif="http://www.serif.com/" style="fill-rule:evenodd;clip-rule:evenodd;stroke-linejoin:round;stroke-miterlimit:2;">
    <g transform="matrix(1.3913,0,0,1.004054,-8.695598,0.096743)">
        <path d="M23.5,12.63C25.149,10.181 27.203,8.695 29.127,8.244C31.129,7.774 33.007,8.396 34.359,10.016C37.3,13.539 37.684,20.571 34.765,27.584C32.941,32.266 28.306,37.036 24.397,40.157C23.842,40.601 23.158,40.601 22.603,40.157C18.703,37.043 14.08,32.287 12.251,27.625C9.316,20.577 9.699,13.54 12.641,10.016C13.993,8.396 15.871,7.774 17.873,8.244C19.797,8.695 21.851,10.181 23.5,12.63ZM23.5,16.792C21.079,10.992 16.237,9 13.816,11.9C11.395,14.8 11.395,20.6 13.816,26.4C15.511,30.75 19.868,35.1 23.5,38C27.132,35.1 31.489,30.75 33.184,26.4C35.605,20.6 35.605,14.8 33.184,11.9C30.763,9 25.921,10.992 23.5,16.792Z"/>
    </g>
</svg>
