<?xml version="1.0" encoding="UTF-8" standalone="no"?>
<!DOCTYPE svg PUBLIC "-//W3C//DTD SVG 1.1//EN" "http://www.w3.org/Graphics/SVG/1.1/DTD/svg11.dtd">
<svg width="100%" height="100%" viewBox="0 0 48 48" version="1.1" xmlns="http://www.w3.org/2000/svg" xmlns:xlink="http://www.w3.org/1999/xlink" xml:space="preserve" xmlns:serif="http://www.serif.com/" style="fill-rule:evenodd;clip-rule:evenodd;stroke-linecap:round;stroke-linejoin:round;stroke-miterlimit:1.5;">
    <g transform="matrix(0.00042,-1.285761,1.666612,0.000544,-26.507044,55.059764)">
        <path d="M19.5,21L19.5,27C17.568,27 16,25.656 16,24C16,22.344 17.568,21 19.5,21Z"/>
        <path d="M19.5,21L19.5,27C17.568,27 16,25.656 16,24C16,22.344 17.568,21 19.5,21Z" style="fill:white;fill-opacity:0;"/>
    </g>
    <g transform="matrix(1.614699,0,0,3.666667,-0.982182,-82.666667)">
        <path d="M22.568,25.853L25.772,30.658C25.826,30.739 25.79,30.826 25.676,30.893C25.562,30.96 25.382,31 25.191,31L18.674,31C18.484,31 18.305,30.96 18.192,30.893C18.08,30.826 18.045,30.74 18.1,30.66L21.414,25.85C21.491,25.738 21.727,25.662 21.993,25.662C22.26,25.663 22.493,25.74 22.568,25.853ZM19.258,30.545L24.621,30.545L21.984,26.589L19.258,30.545Z"/>
        <path d="M22.568,25.853C22.493,25.74 22.26,25.663 21.993,25.662C21.727,25.662 21.491,25.738 21.414,25.85C20.49,27.192 18.733,29.741 18.1,30.66C18.045,30.74 18.08,30.826 18.192,30.893C18.305,30.96 18.484,31 18.674,31C20.231,31 23.633,31 25.191,31C25.382,31 25.562,30.96 25.676,30.893C25.79,30.826 25.826,30.739 25.772,30.658C25.16,29.739 23.463,27.194 22.568,25.853Z" style="fill:white;fill-opacity:0;"/>
    </g>
    <g transform="matrix(1,0,0,0.918919,0,-0.432432)">
        <path d="M24,7L24,44" style="fill:none;stroke:black;stroke-width:2.17px;"/>
        <path d="M24,7L24,44" style="fill:none;"/>
    </g>
    <g transform="matrix(0.000509,-1,0.513513,0.000261,10.893187,63.497403)">
        <path d="M24,7L24,44" style="fill:none;stroke:black;stroke-width:2.62px;"/>
        <path d="M24,7L24,44" style="fill:none;"/>
    </g>
    <g transform="matrix(0.000509,-1,0.621622,0.000317,8.13643,65.495999)">
        <path d="M24,7L24,44" style="fill:none;stroke:black;stroke-width:2.5px;"/>
        <path d="M24,7L24,44" style="fill:none;"/>
    </g>
    <g transform="matrix(1.614699,0,0,3.666667,-21.982182,-82.666667)">
        <path d="M22.568,25.853L25.772,30.658C25.826,30.739 25.79,30.826 25.676,30.893C25.562,30.96 25.382,31 25.191,31L18.674,31C18.484,31 18.305,30.96 18.192,30.893C18.08,30.826 18.045,30.74 18.1,30.66L21.414,25.85C21.491,25.738 21.727,25.662 21.993,25.662C22.26,25.663 22.493,25.74 22.568,25.853ZM19.258,30.545L24.621,30.545L21.984,26.589L19.258,30.545Z"/>
        <path d="M22.568,25.853C22.493,25.74 22.26,25.663 21.993,25.662C21.727,25.662 21.491,25.738 21.414,25.85C20.49,27.192 18.733,29.741 18.1,30.66C18.045,30.74 18.08,30.826 18.192,30.893C18.305,30.96 18.484,31 18.674,31C20.231,31 23.633,31 25.191,31C25.382,31 25.562,30.96 25.676,30.893C25.79,30.826 25.826,30.739 25.772,30.658C25.16,29.739 23.463,27.194 22.568,25.853Z" style="fill:white;fill-opacity:0;"/>
    </g>
    <g transform="matrix(0.00042,-1.285761,1.666612,0.000544,-5.507044,55.059111)">
        <path d="M19.5,21L19.5,27C17.568,27 16,25.656 16,24C16,22.344 17.568,21 19.5,21Z"/>
        <path d="M19.5,21L19.5,27C17.568,27 16,25.656 16,24C16,22.344 17.568,21 19.5,21Z" style="fill:white;fill-opacity:0;"/>
    </g>
    <g transform="matrix(0.000435,-1,0.702703,0.000305,6.070655,34.992212)">
        <path d="M24,7L24,44" style="fill:none;stroke:black;stroke-width:2.41px;"/>
        <path d="M24,7L24,44" style="fill:none;"/>
    </g>
</svg>
