<?xml version="1.0" encoding="UTF-8" standalone="no"?>
<!DOCTYPE svg PUBLIC "-//W3C//DTD SVG 1.1//EN" "http://www.w3.org/Graphics/SVG/1.1/DTD/svg11.dtd">
<svg width="100%" height="100%" viewBox="0 0 48 48" version="1.1" xmlns="http://www.w3.org/2000/svg" xmlns:xlink="http://www.w3.org/1999/xlink" xml:space="preserve" xmlns:serif="http://www.serif.com/" style="fill-rule:evenodd;clip-rule:evenodd;stroke-linecap:round;stroke-linejoin:round;stroke-miterlimit:1.5;">
    <g transform="matrix(1.028571,0,0,1.058824,-6.342857,-4.588235)">
        <path d="M24.971,10.579C26.448,10.195 27.971,10 29.5,10C31.029,10 32.552,10.195 34.029,10.579C35.507,10.964 36.926,11.535 38.25,12.278C39.574,13.02 40.793,13.929 41.874,14.979C42.956,16.03 43.891,17.213 44.655,18.5C45.42,19.787 46.008,21.165 46.404,22.6C46.8,24.035 47,25.514 47,27C47,28.486 46.8,29.965 46.404,31.4C46.008,32.835 45.42,34.213 44.655,35.5C43.891,36.787 42.956,37.97 41.874,39.021C40.793,40.071 39.574,40.98 38.25,41.722C36.926,42.465 35.507,43.036 34.029,43.421C32.552,43.805 31.029,44 29.5,44C27.971,44 26.448,43.805 24.971,43.421C23.493,43.036 22.074,42.465 20.75,41.722C19.426,40.98 18.207,40.071 17.126,39.021C16.044,37.97 15.109,36.787 14.345,35.5C13.58,34.213 12.992,32.835 12.596,31.4C12.2,29.965 12,28.486 12,27C12,25.514 12.2,24.035 12.596,22.6C12.992,21.165 13.58,19.787 14.345,18.5C15.109,17.213 16.044,16.03 17.126,14.979C18.207,13.929 19.426,13.02 20.75,12.278C22.074,11.535 23.493,10.964 24.971,10.579Z" style="fill:url(#_Linear1);stroke:black;stroke-width:2.4px;"/>
    </g>
    <path d="M36.02,11.98L11.98,36.02" style="stroke:black;stroke-width:2.92px;"/>
    <g transform="matrix(1.310345,0,0,1.310345,-5.482759,-4.172414)">
        <path d="M22.5,7C30.503,7 37,13.497 37,21.5C37,29.503 30.503,36 22.5,36C14.497,36 8,29.503 8,21.5C8,13.497 14.497,7 22.5,7ZM22.5,7.159C14.585,7.159 8.159,13.585 8.159,21.5C8.159,29.415 14.585,35.841 22.5,35.841C30.415,35.841 36.841,29.415 36.841,21.5C36.841,13.585 30.415,7.159 22.5,7.159Z" style="fill:rgb(255,0,0);fill-opacity:0.25;"/>
    </g>
    <defs>
        <linearGradient id="_Linear1" x1="0" y1="0" x2="1" y2="-0.01" gradientUnits="userSpaceOnUse" gradientTransform="matrix(0,646000000.483467,-51.153846,0,63.153846,27)"><stop offset="0" style="stop-color:white;stop-opacity:0"/><stop offset="1" style="stop-color:rgb(166,166,166);stop-opacity:0"/></linearGradient>
    </defs>
</svg>
