<?xml version="1.0" encoding="UTF-8" standalone="no"?>
<!DOCTYPE svg PUBLIC "-//W3C//DTD SVG 1.1//EN" "http://www.w3.org/Graphics/SVG/1.1/DTD/svg11.dtd">
<svg width="100%" height="100%" viewBox="0 0 48 48" version="1.1" xmlns="http://www.w3.org/2000/svg" xmlns:xlink="http://www.w3.org/1999/xlink" xml:space="preserve" xmlns:serif="http://www.serif.com/" style="fill-rule:evenodd;clip-rule:evenodd;stroke-linecap:round;stroke-linejoin:round;stroke-miterlimit:1.5;">
    <g transform="matrix(1.032258,0,0,1.032258,-2.322581,-0.258065)">
        <path d="M25.5,5.578C35.391,5.578 43.422,13.609 43.422,23.5C43.422,33.391 35.391,41.422 25.5,41.422C15.609,41.422 7.578,33.391 7.578,23.5C7.578,13.609 15.609,5.578 25.5,5.578ZM25.5,8C16.945,8 10,14.945 10,23.5C10,32.055 16.945,39 25.5,39C34.055,39 41,32.055 41,23.5C41,14.945 34.055,8 25.5,8Z"/>
        <circle cx="25.5" cy="23.5" r="15.5" style="fill:white;fill-opacity:0;"/>
    </g>
    <g transform="matrix(0.941176,0,0,0.941176,1.729954,1.882379)">
        <g transform="matrix(0.532469,0,0,0.482956,10.012969,13.647774)">
            <path d="M38.91,25.188L38.91,34.812L38.792,36.098L38.452,37.303L37.917,38.39L37.21,39.334L36.354,40.113L35.368,40.704L34.275,41.078L33.109,41.208L17.891,41.208L16.725,41.078L15.632,40.704L14.646,40.113L13.79,39.334L13.083,38.39L12.548,37.303L12.208,36.098L12.09,34.812L12.09,25.188L12.208,23.902L12.548,22.697L13.083,21.61L13.79,20.666L14.646,19.887L15.632,19.296L16.725,18.922L17.891,18.792L33.109,18.792L34.275,18.922L35.368,19.296L36.354,19.887L37.21,20.666L37.917,21.61L38.452,22.697L38.792,23.902L38.91,25.188ZM36,25.188C36,23.428 34.704,22 33.109,22L17.891,22C16.296,22 15,23.428 15,25.188L15,34.812C15,36.572 16.296,38 17.891,38L33.109,38C34.704,38 36,36.572 36,34.812L36,25.188Z"/>
        </g>
        <g transform="matrix(0.532458,0.003192,-0.002933,0.457904,10.595362,13.090353)">
            <path d="M17,22L17,12.702C17,7.896 20.35,4 24.484,4C24.485,4 24.485,4 24.486,4C26.479,4 28.39,4.921 29.799,6.559C31.208,8.198 32,10.42 32,12.737C32,17.323 32,22 32,22" style="fill:none;stroke:black;stroke-width:3.12px;"/>
        </g>
    </g>
</svg>
