<?xml version="1.0" encoding="UTF-8" standalone="no"?>
<!DOCTYPE svg PUBLIC "-//W3C//DTD SVG 1.1//EN" "http://www.w3.org/Graphics/SVG/1.1/DTD/svg11.dtd">
<svg width="100%" height="100%" viewBox="0 0 48 48" version="1.1" xmlns="http://www.w3.org/2000/svg" xmlns:xlink="http://www.w3.org/1999/xlink" xml:space="preserve" xmlns:serif="http://www.serif.com/" style="fill-rule:evenodd;clip-rule:evenodd;stroke-linecap:round;stroke-linejoin:round;stroke-miterlimit:1.5;">
    <g transform="matrix(0.952381,0,0,0.9375,-0.285714,4.375)">
        <path d="M38.625,25.188L38.625,34.812C38.625,38.043 36.043,40.667 32.862,40.667L18.138,40.667C14.957,40.667 12.375,38.043 12.375,34.812L12.375,25.188C12.375,21.957 14.957,19.333 18.138,19.333L32.862,19.333C36.043,19.333 38.625,21.957 38.625,25.188ZM36,25.188C36,23.428 34.594,22 32.862,22L18.138,22C16.406,22 15,23.428 15,25.188L15,34.812C15,36.572 16.406,38 18.138,38L32.862,38C34.594,38 36,36.572 36,34.812L36,25.188Z"/>
    </g>
    <g transform="matrix(0.933314,0.005783,-0.005508,0.88887,1.227094,3.306169)">
        <path d="M17,22L17,11.873C17,9.785 17.79,7.782 19.196,6.306C20.602,4.829 22.509,4 24.498,4C24.499,4 24.501,4 24.502,4C26.491,4 28.398,4.829 29.804,6.306C31.21,7.782 32,9.785 32,11.873C32,16.715 32,22 32,22" style="fill:none;stroke:black;stroke-width:2.74px;"/>
    </g>
</svg>
