<?xml version="1.0" encoding="UTF-8" standalone="no"?>
<!DOCTYPE svg PUBLIC "-//W3C//DTD SVG 1.1//EN" "http://www.w3.org/Graphics/SVG/1.1/DTD/svg11.dtd">
<svg width="100%" height="100%" viewBox="0 0 48 48" version="1.1" xmlns="http://www.w3.org/2000/svg" xmlns:xlink="http://www.w3.org/1999/xlink" xml:space="preserve" xmlns:serif="http://www.serif.com/" style="fill-rule:evenodd;clip-rule:evenodd;stroke-linejoin:round;stroke-miterlimit:2;">
    <g transform="matrix(1.509272,0,0,1.515899,-9.35748,-13.199772)">
        <path d="M22,14.626C24.416,14.626 26.38,16.584 26.38,19C26.38,21.416 24.416,23.374 22,23.374C19.584,23.374 17.62,21.416 17.62,19C17.62,16.584 19.584,14.626 22,14.626ZM22,16C20.344,16 19,17.344 19,19C19,20.656 20.344,22 22,22C23.656,22 25,20.656 25,19C25,17.344 23.656,16 22,16Z"/>
    </g>
    <g transform="matrix(0.000364,0.875,-1.823529,0.000758,77.784503,18.353473)">
        <path d="M18.555,21.333C19.576,21.175 20.692,21.261 21.559,21.564C22.426,21.867 22.939,22.351 22.939,22.866C23,25.077 23,27.289 23,29.5L23,36.137C23,36.66 22.479,37.152 21.598,37.461C20.717,37.769 19.582,37.857 18.543,37.697C11.888,36.645 7,33.373 7,29.5C7,25.628 11.884,22.357 18.555,21.333ZM19.28,22.421C13.519,23.306 9.381,26.156 9.381,29.5C9.381,32.847 13.528,35.699 19.282,36.61C19.593,36.657 19.932,36.63 20.195,36.538C20.462,36.444 20.619,36.296 20.619,36.137L20.619,29.5C20.619,27.294 20.619,25.087 20.558,22.881L20.558,22.866C20.558,22.716 20.409,22.576 20.157,22.488C19.905,22.4 19.581,22.375 19.284,22.42L19.28,22.421Z"/>
    </g>
</svg>
