<?xml version="1.0" encoding="UTF-8" standalone="no"?>
<!DOCTYPE svg PUBLIC "-//W3C//DTD SVG 1.1//EN" "http://www.w3.org/Graphics/SVG/1.1/DTD/svg11.dtd">
<svg width="100%" height="100%" viewBox="0 0 48 48" version="1.1" xmlns="http://www.w3.org/2000/svg" xmlns:xlink="http://www.w3.org/1999/xlink" xml:space="preserve" xmlns:serif="http://www.serif.com/" style="fill-rule:evenodd;clip-rule:evenodd;stroke-linejoin:round;stroke-miterlimit:2;">
    <g transform="matrix(1.509272,0,0,1.515899,-9.35748,-13.199772)">
        <path d="M22,14.351C24.568,14.351 26.656,16.432 26.656,19C26.656,21.568 24.568,23.649 22,23.649C19.432,23.649 17.344,21.568 17.344,19C17.344,16.432 19.432,14.351 22,14.351ZM22,16C20.344,16 19,17.344 19,19C19,20.656 20.344,22 22,22C23.656,22 25,20.656 25,19C25,17.344 23.656,16 22,16Z"/>
    </g>
    <g transform="matrix(0.000364,0.875,-1.941176,0.000807,81.255091,18.35203)">
        <path d="M18.484,21.344C19.508,21.184 20.641,21.257 21.525,21.54C22.408,21.823 22.933,22.282 22.933,22.77C23,25.014 23,27.257 23,29.5L23,36.233C23,36.73 22.466,37.197 21.567,37.486C20.667,37.775 19.513,37.849 18.47,37.686C11.853,36.622 7,33.36 7,29.5C7,25.642 11.849,22.38 18.484,21.344ZM19.42,22.561C13.809,23.437 9.857,26.237 9.857,29.5C9.857,32.766 13.818,35.566 19.424,36.472C19.589,36.495 19.769,36.482 19.91,36.437C20.056,36.39 20.143,36.314 20.143,36.233L20.143,29.5C20.143,27.263 20.143,25.025 20.076,22.788L20.076,22.77C20.076,22.698 19.999,22.631 19.869,22.589C19.739,22.548 19.572,22.537 19.421,22.56L19.42,22.561Z"/>
    </g>
</svg>
