<?xml version="1.0" encoding="UTF-8" standalone="no"?>
<!DOCTYPE svg PUBLIC "-//W3C//DTD SVG 1.1//EN" "http://www.w3.org/Graphics/SVG/1.1/DTD/svg11.dtd">
<svg width="100%" height="100%" viewBox="0 0 48 48" version="1.1" xmlns="http://www.w3.org/2000/svg" xmlns:xlink="http://www.w3.org/1999/xlink" xml:space="preserve" xmlns:serif="http://www.serif.com/" style="fill-rule:evenodd;clip-rule:evenodd;stroke-linejoin:round;stroke-miterlimit:1.5;">
    <g transform="matrix(0.9375,0,0,0.9375,1.5,1.5)">
        <path d="M26.733,8L13.901,8C12.336,8 10.835,8.622 9.728,9.728C8.622,10.835 8,12.336 8,13.901C8,19.669 8,28.397 8,34.147C8,37.38 10.62,40 13.853,40L34.085,40C35.654,40 37.158,39.377 38.268,38.268C39.377,37.158 40,35.654 40,34.085C40,29.086 40,22.733 40,22.733" style="fill:none;stroke:black;stroke-width:2.22px;"/>
    </g>
    <g transform="matrix(0.522536,0.571132,-0.809227,0.740372,40.40687,-2.896094)">
        <path d="M10.805,7.291L11.145,7.291C12.545,7.29 13.887,7.683 14.877,8.381C15.866,9.08 16.422,10.027 16.422,11.015L16.422,32C16.422,32.229 16.357,32.456 16.23,32.667L13.23,37.667C12.851,38.299 11.973,38.709 11,38.709C10.027,38.709 9.149,38.299 8.77,37.667L5.77,32.667C5.643,32.456 5.578,32.229 5.578,32L5.578,10.98C5.578,8.942 7.918,7.29 10.805,7.291ZM10.805,9C9.256,9 8,9.886 8,10.98L8,32L11,37L14,32L14,11.015C14,10.48 13.699,9.968 13.164,9.59C12.629,9.212 11.902,9 11.145,9L10.805,9Z"/>
    </g>
</svg>
