<?xml version="1.0" encoding="UTF-8" standalone="no"?>
<!DOCTYPE svg PUBLIC "-//W3C//DTD SVG 1.1//EN" "http://www.w3.org/Graphics/SVG/1.1/DTD/svg11.dtd">
<svg width="100%" height="100%" viewBox="0 0 48 48" version="1.1" xmlns="http://www.w3.org/2000/svg" xmlns:xlink="http://www.w3.org/1999/xlink" xml:space="preserve" xmlns:serif="http://www.serif.com/" style="fill-rule:evenodd;clip-rule:evenodd;stroke-linejoin:round;stroke-miterlimit:1.5;">
    <g transform="matrix(0.9375,0,0,0.9375,1.5,1.5)">
        <path d="M26.733,8L13.901,8C12.336,8 10.835,8.622 9.728,9.728C8.622,10.835 8,12.336 8,13.901C8,19.669 8,28.397 8,34.147C8,37.38 10.62,40 13.853,40L34.085,40C35.654,40 37.158,39.377 38.268,38.268C39.377,37.158 40,35.654 40,34.085C40,29.086 40,22.733 40,22.733" style="fill:none;stroke:black;stroke-width:2.67px;"/>
    </g>
    <g transform="matrix(0.522536,0.571132,-0.809227,0.740372,40.40687,-2.896094)">
        <path d="M10.805,7.101L11.145,7.101C12.616,7.101 14.027,7.513 15.067,8.247C16.107,8.981 16.691,9.977 16.691,11.015L16.691,32C16.691,32.254 16.619,32.506 16.478,32.741L13.478,37.741C13.057,38.443 12.081,38.899 11,38.899C9.919,38.899 8.943,38.443 8.522,37.741L5.522,32.741C5.381,32.506 5.309,32.254 5.309,32L5.309,10.98C5.309,8.837 7.77,7.101 10.805,7.101ZM10.805,9C9.256,9 8,9.886 8,10.98L8,32L11,37L14,32L14,11.015C14,10.48 13.699,9.968 13.164,9.59C12.629,9.212 11.902,9 11.145,9L10.805,9Z"/>
    </g>
</svg>
