<?xml version="1.0" encoding="UTF-8" standalone="no"?>
<!DOCTYPE svg PUBLIC "-//W3C//DTD SVG 1.1//EN" "http://www.w3.org/Graphics/SVG/1.1/DTD/svg11.dtd">
<svg width="100%" height="100%" viewBox="0 0 48 48" version="1.1" xmlns="http://www.w3.org/2000/svg" xmlns:xlink="http://www.w3.org/1999/xlink" xml:space="preserve" xmlns:serif="http://www.serif.com/" style="fill-rule:evenodd;clip-rule:evenodd;stroke-linecap:round;stroke-linejoin:round;stroke-miterlimit:1.5;">
    <g transform="matrix(0.8125,0,0,0.9,4.5,1.5)">
        <path d="M40,11.293L40,38.707C40,42.18 36.876,45 33.029,45L14.971,45C11.124,45 8,42.18 8,38.707L8,11.293C8,7.82 11.124,5 14.971,5L33.029,5C36.876,5 40,7.82 40,11.293Z" style="fill:rgb(235,235,235);fill-opacity:0;"/>
        <path d="M40,11.293L40,38.707C40,42.18 36.876,45 33.029,45L14.971,45C11.124,45 8,42.18 8,38.707L8,11.293C8,7.82 11.124,5 14.971,5L33.029,5C36.876,5 40,7.82 40,11.293ZM37.436,11.293C37.436,9.097 35.461,7.315 33.029,7.315L14.971,7.315C12.539,7.315 10.564,9.097 10.564,11.293L10.564,38.707C10.564,40.903 12.539,42.685 14.971,42.685L33.029,42.685C35.461,42.685 37.436,40.903 37.436,38.707L37.436,11.293Z"/>
    </g>
    <g transform="matrix(-0.727273,0,0,-1,41.818182,26)">
        <path d="M19,16L30,16" style="fill:none;stroke:black;stroke-width:1.67px;"/>
    </g>
</svg>
