<?xml version="1.0" encoding="UTF-8" standalone="no"?>
<!DOCTYPE svg PUBLIC "-//W3C//DTD SVG 1.1//EN" "http://www.w3.org/Graphics/SVG/1.1/DTD/svg11.dtd">
<svg width="100%" height="100%" viewBox="0 0 48 48" version="1.1" xmlns="http://www.w3.org/2000/svg" xmlns:xlink="http://www.w3.org/1999/xlink" xml:space="preserve" xmlns:serif="http://www.serif.com/" style="fill-rule:evenodd;clip-rule:evenodd;stroke-linecap:round;stroke-linejoin:round;stroke-miterlimit:1.5;">
    <g transform="matrix(0.8125,0,0,0.95,4.5,0.25)">
        <path d="M40,10.962L40,39.038C40,42.329 36.876,45 33.029,45L14.971,45C11.124,45 8,42.329 8,39.038L8,10.962C8,7.671 11.124,5 14.971,5L33.029,5C36.876,5 40,7.671 40,10.962Z" style="fill:rgb(235,235,235);fill-opacity:0;"/>
        <path d="M40,10.962L40,39.038C40,42.329 36.876,45 33.029,45L14.971,45C11.124,45 8,42.329 8,39.038L8,10.962C8,7.671 11.124,5 14.971,5L33.029,5C36.876,5 40,7.671 40,10.962ZM37.179,10.962C37.179,9.003 35.32,7.412 33.029,7.412L14.971,7.412C12.68,7.412 10.821,9.003 10.821,10.962L10.821,39.038C10.821,40.997 12.68,42.588 14.971,42.588L33.029,42.588C35.32,42.588 37.179,40.997 37.179,39.038L37.179,10.962Z"/>
    </g>
    <g transform="matrix(-0.727273,0,0,-1,41.818182,25)">
        <path d="M19,16L30,16" style="fill:none;stroke:black;stroke-width:1.91px;"/>
    </g>
</svg>
