<?xml version="1.0" encoding="UTF-8" standalone="no"?>
<!DOCTYPE svg PUBLIC "-//W3C//DTD SVG 1.1//EN" "http://www.w3.org/Graphics/SVG/1.1/DTD/svg11.dtd">
<svg width="100%" height="100%" viewBox="0 0 48 48" version="1.1" xmlns="http://www.w3.org/2000/svg" xmlns:xlink="http://www.w3.org/1999/xlink" xml:space="preserve" xmlns:serif="http://www.serif.com/" style="fill-rule:evenodd;clip-rule:evenodd;stroke-linejoin:round;stroke-miterlimit:1.5;">
    <g transform="matrix(1.5,0,0,1.371429,-10.5,-8.714286)">
        <path d="M30.568,31.189L23,38L15.433,31.19C13.893,29.803 13,27.736 13,25.554L13,16.421C13,15.555 13.462,14.769 14.182,14.409L23,10L31.826,14.413C32.541,14.771 33,15.552 33,16.412L33,25.555C33,27.736 32.108,29.803 30.568,31.189ZM29.509,29.781C30.664,28.742 31.333,27.191 31.333,25.555L31.333,16.412C31.333,16.265 31.255,16.132 31.133,16.071L23,12.004L14.875,16.067C14.748,16.13 14.667,16.269 14.667,16.421L14.667,25.554C14.667,27.191 15.336,28.742 16.492,29.782L23,35.639L29.509,29.781Z"/>
    </g>
    <g transform="matrix(1,0,0,0.809524,-1,4.380952)">
        <path d="M24,2L24,44" style="fill:none;stroke:black;stroke-width:2.29px;"/>
    </g>
    <g transform="matrix(0.923077,0,0,0.970588,1.769231,1.176471)">
        <path d="M23,6L10,12L10,28L12.083,31L23,40L23,6Z" style="fill:none;stroke:black;stroke-width:2.2px;stroke-linecap:round;stroke-miterlimit:2;"/>
        <path d="M23,6L10,12L10,28L12.083,31L23,40L23,6Z"/>
    </g>
</svg>
