<?xml version="1.0" encoding="UTF-8" standalone="no"?>
<!DOCTYPE svg PUBLIC "-//W3C//DTD SVG 1.1//EN" "http://www.w3.org/Graphics/SVG/1.1/DTD/svg11.dtd">
<svg width="100%" height="100%" viewBox="0 0 48 48" version="1.1" xmlns="http://www.w3.org/2000/svg" xmlns:xlink="http://www.w3.org/1999/xlink" xml:space="preserve" xmlns:serif="http://www.serif.com/" style="fill-rule:evenodd;clip-rule:evenodd;stroke-linejoin:round;stroke-miterlimit:2;">
    <g transform="matrix(1.032258,0,0,1.032258,-2.322581,-0.258065)">
        <path d="M25.5,5.578C35.391,5.578 43.422,13.609 43.422,23.5C43.422,33.391 35.391,41.422 25.5,41.422C15.609,41.422 7.578,33.391 7.578,23.5C7.578,13.609 15.609,5.578 25.5,5.578ZM25.5,8C16.945,8 10,14.945 10,23.5C10,32.055 16.945,39 25.5,39C34.055,39 41,32.055 41,23.5C41,14.945 34.055,8 25.5,8Z"/>
        <circle cx="25.5" cy="23.5" r="15.5" style="fill:white;fill-opacity:0;"/>
    </g>
    <g transform="matrix(0.000234,0.5625,-1.117647,0.000465,56.961883,19.547135)">
        <path d="M18.052,21.415C19.175,21.216 20.421,21.304 21.392,21.651C22.364,21.997 22.941,22.559 22.941,23.159C23,25.272 23,27.386 23,29.5L23,35.861C23,36.464 22.421,37.03 21.444,37.38C20.467,37.73 19.214,37.82 18.082,37.622C11.664,36.493 7,33.284 7,29.5C7,25.726 11.64,22.523 18.052,21.415ZM19.014,22.825C13.734,23.738 9.963,26.392 9.963,29.5C9.963,32.62 13.763,35.282 19.055,36.213C19.281,36.253 19.531,36.235 19.726,36.165C19.921,36.095 20.037,35.981 20.037,35.861L20.037,29.5C20.037,27.393 20.037,25.286 19.979,23.179L19.979,23.159C19.979,23.043 19.867,22.934 19.679,22.867C19.492,22.8 19.251,22.783 19.034,22.822L19.014,22.825Z"/>
    </g>
    <g transform="matrix(0.842605,0,0,0.849232,5.309187,2.466894)">
        <path d="M22,14.283C24.607,14.283 26.731,16.393 26.731,19C26.731,21.607 24.607,23.717 22,23.717C19.393,23.717 17.269,21.607 17.269,19C17.269,16.393 19.393,14.283 22,14.283ZM22,16C20.344,16 19,17.344 19,19C19,20.656 20.344,22 22,22C23.656,22 25,20.656 25,19C25,17.344 23.656,16 22,16Z"/>
    </g>
</svg>
