<?xml version="1.0" encoding="UTF-8" standalone="no"?>
<!DOCTYPE svg PUBLIC "-//W3C//DTD SVG 1.1//EN" "http://www.w3.org/Graphics/SVG/1.1/DTD/svg11.dtd">
<svg width="100%" height="100%" viewBox="0 0 48 48" version="1.1" xmlns="http://www.w3.org/2000/svg" xmlns:xlink="http://www.w3.org/1999/xlink" xml:space="preserve" xmlns:serif="http://www.serif.com/" style="fill-rule:evenodd;clip-rule:evenodd;stroke-linejoin:round;stroke-miterlimit:2;">
    <g transform="matrix(1.032258,0,0,1.032258,-2.322581,-0.258065)">
        <path d="M25.5,5.982C35.169,5.982 43.018,13.831 43.018,23.5C43.018,33.169 35.169,41.018 25.5,41.018C15.831,41.018 7.982,33.169 7.982,23.5C7.982,13.831 15.831,5.982 25.5,5.982ZM25.5,8C16.945,8 10,14.945 10,23.5C10,32.055 16.945,39 25.5,39C34.055,39 41,32.055 41,23.5C41,14.945 34.055,8 25.5,8Z"/>
        <circle cx="25.5" cy="23.5" r="15.5" style="fill:white;fill-opacity:0;"/>
    </g>
    <g transform="matrix(0.000208,0.5,-1,0.000416,53.491892,19.986077)">
        <path d="M17.157,21.586C18.438,21.308 19.912,21.372 21.079,21.755C22.245,22.139 22.948,22.79 22.948,23.488C23,25.492 23,27.496 23,29.5L23,35.536C23.001,36.236 22.298,36.889 21.13,37.275C19.961,37.661 18.484,37.727 17.196,37.452C11.241,36.194 7,33.108 7,29.5C7,25.904 11.213,22.826 17.157,21.586ZM18.12,22.739C13.052,23.797 9.5,26.434 9.5,29.5C9.5,32.581 13.085,35.227 18.169,36.301L18.179,36.303C18.694,36.413 19.285,36.386 19.752,36.232C20.219,36.077 20.5,35.816 20.5,35.536L20.5,29.5C20.5,27.501 20.5,25.502 20.448,23.504L20.448,23.488C20.448,23.211 20.169,22.952 19.706,22.8C19.243,22.648 18.658,22.623 18.15,22.733L18.12,22.739Z"/>
    </g>
    <g transform="matrix(0.842605,0,0,0.849232,5.309187,2.466894)">
        <path d="M22,14.528C24.471,14.528 26.483,16.529 26.483,19C26.483,21.471 24.471,23.472 22,23.472C19.529,23.472 17.517,21.471 17.517,19C17.517,16.529 19.529,14.528 22,14.528ZM22,16C20.344,16 19,17.344 19,19C19,20.656 20.344,22 22,22C23.656,22 25,20.656 25,19C25,17.344 23.656,16 22,16Z"/>
    </g>
</svg>
