<?xml version="1.0" encoding="UTF-8" standalone="no"?>
<!DOCTYPE svg PUBLIC "-//W3C//DTD SVG 1.1//EN" "http://www.w3.org/Graphics/SVG/1.1/DTD/svg11.dtd">
<svg width="100%" height="100%" viewBox="0 0 48 48" version="1.1" xmlns="http://www.w3.org/2000/svg" xmlns:xlink="http://www.w3.org/1999/xlink" xml:space="preserve" xmlns:serif="http://www.serif.com/" style="fill-rule:evenodd;clip-rule:evenodd;stroke-linecap:round;stroke-linejoin:round;stroke-miterlimit:1.5;">
    <g transform="matrix(0.516736,0.42113,-0.737182,0.90454,40.440295,-5.770502)">
        <path d="M10.97,7.393L10.973,7.393C14.198,7.393 16.813,8.887 16.813,10.729L16.813,32C16.813,32.177 16.761,32.353 16.661,32.521L13.661,37.521C13.271,38.171 12.202,38.607 11,38.607C9.798,38.607 8.729,38.171 8.339,37.521L5.339,32.521C5.239,32.353 5.187,32.177 5.187,32L5.187,10.697C5.187,8.872 7.776,7.393 10.97,7.393ZM10.97,9C9.33,9 8,9.76 8,10.697L8,32L11,37L14,32L14,10.729C14,9.774 12.645,9 10.973,9L10.97,9Z"/>
    </g>
    <g transform="matrix(-1.731008,-0.425055,0.227869,-0.927983,62.191873,71.133266)">
        <path d="M22.528,25.182C22.528,25.182 19.797,23.747 20.811,24.41C21.911,25.128 23.743,25.859 24.827,25.027C26.76,23.544 21.018,19.171 24.404,21.013C25.019,21.348 30.836,24.563 30.506,23.921C30.13,23.189 29.714,22.835 29.714,22.835C27.739,20.333 23.703,16.236 31.097,19.577C39.165,23.222 33.421,16.96 33.421,16.96" style="fill:white;fill-opacity:0;stroke:black;stroke-width:1.02px;"/>
    </g>
</svg>
