<?xml version="1.0" encoding="UTF-8" standalone="no"?>
<!DOCTYPE svg PUBLIC "-//W3C//DTD SVG 1.1//EN" "http://www.w3.org/Graphics/SVG/1.1/DTD/svg11.dtd">
<svg width="100%" height="100%" viewBox="0 0 48 48" version="1.1" xmlns="http://www.w3.org/2000/svg" xmlns:xlink="http://www.w3.org/1999/xlink" xml:space="preserve" xmlns:serif="http://www.serif.com/" style="fill-rule:evenodd;clip-rule:evenodd;stroke-linecap:round;stroke-linejoin:round;stroke-miterlimit:1.5;">
    <g transform="matrix(0.516736,0.42113,-0.737182,0.90454,40.440295,-5.770502)">
        <path d="M10.97,7.036L10.973,7.036L12.272,7.111L13.49,7.327L14.59,7.668L15.544,8.118L16.332,8.663L16.928,9.291L17.307,9.987L17.438,10.729L17.438,32C17.438,32.217 17.375,32.432 17.252,32.637L14.252,37.637C13.776,38.431 12.469,38.964 11,38.964C9.531,38.964 8.224,38.431 7.748,37.637L4.748,32.637C4.625,32.432 4.562,32.217 4.562,32L4.562,10.697L4.692,9.961L5.067,9.271L5.659,8.649L6.439,8.108L7.385,7.662L8.475,7.325L9.682,7.11L10.97,7.036ZM10.97,9C9.33,9 8,9.76 8,10.697L8,32L11,37L14,32L14,10.729C14,9.774 12.645,9 10.973,9L10.97,9Z"/>
    </g>
    <g transform="matrix(-1.731008,-0.425055,0.227869,-0.927983,62.191873,71.133266)">
        <path d="M22.528,25.182C22.528,25.182 19.797,23.747 20.811,24.41C21.911,25.128 23.743,25.859 24.827,25.027C26.76,23.544 21.018,19.171 24.404,21.013C25.019,21.348 30.836,24.563 30.506,23.921C30.13,23.189 29.714,22.835 29.714,22.835C27.739,20.333 23.703,16.236 31.097,19.577C39.165,23.222 33.421,16.96 33.421,16.96" style="fill:white;fill-opacity:0;stroke:black;stroke-width:1.31px;"/>
    </g>
</svg>
